<svg width="107" height="37" viewBox="0 0 107 37" fill="none" xmlns="http://www.w3.org/2000/svg">
<g clip-path="url(#clip0_2_381)">
<path d="M47.9841 23.5947H53.9903C53.9903 25.5499 52.4056 27.135 50.451 27.135H43.399V12.893C43.399 10.36 45.4518 8.30664 47.9841 8.30664V23.5947Z" fill="#171A1F"/>
<path d="M62.3799 27.3485C60.9141 27.3485 59.5913 27.0355 58.4115 26.4097C57.2497 25.7838 56.3291 24.8899 55.6497 23.7276C54.9884 22.5653 54.6577 21.2064 54.6577 19.6508C54.6577 18.113 54.9973 16.763 55.6766 15.6008C56.3559 14.4206 57.2853 13.5177 58.4651 12.8919C59.6449 12.2661 60.9678 11.9531 62.4335 11.9531C63.8993 11.9531 65.2221 12.2661 66.4019 12.8919C67.5817 13.5177 68.511 14.4206 69.1901 15.6008C69.8699 16.763 70.2092 18.113 70.2092 19.6508C70.2092 21.1885 69.8611 22.5475 69.1636 23.7276C68.4845 24.8899 67.5459 25.7838 66.3482 26.4097C65.1684 27.0355 63.8457 27.3485 62.3799 27.3485ZM62.3799 23.3789C63.2558 23.3789 63.9976 23.057 64.6054 22.4134C65.2311 21.7697 65.5438 20.8488 65.5438 19.6508C65.5438 18.4528 65.24 17.5319 64.6322 16.8882C64.0423 16.2445 63.3094 15.9226 62.4335 15.9226C61.5397 15.9226 60.7979 16.2445 60.208 16.8882C59.6181 17.514 59.3232 18.4349 59.3232 19.6508C59.3232 20.8488 59.6092 21.7697 60.1812 22.4134C60.7711 23.057 61.504 23.3789 62.3799 23.3789Z" fill="#171A1F"/>
<path d="M78.3279 11.9495C79.383 11.9495 80.3034 12.1641 81.0899 12.5932C81.8941 13.0224 82.5107 13.5856 82.9397 14.2829C82.9397 13.1127 83.888 12.1641 85.0579 12.1641H87.5249V27.1035C87.5249 28.4803 87.2476 29.723 86.6935 30.8316C86.1572 31.958 85.3264 32.8521 84.2 33.5137C83.0919 34.1753 81.7065 34.5061 80.0444 34.5061C77.8276 34.5061 76.0309 33.9786 74.6549 32.9236C73.2784 31.8865 72.4918 30.4739 72.2954 28.6859H76.8262C76.9697 29.258 77.3089 29.7051 77.8453 30.0269C78.3816 30.3666 79.0431 30.5366 79.8296 30.5366C80.7772 30.5366 81.5277 30.2594 82.0818 29.7051C82.6542 29.1687 82.9397 28.3015 82.9397 27.1035V24.9846C82.493 25.6819 81.8765 26.2541 81.0899 26.7011C80.3034 27.1303 79.383 27.3449 78.3279 27.3449C77.0948 27.3449 75.9772 27.0319 74.9765 26.4061C73.9752 25.7624 73.1798 24.8594 72.5897 23.6971C72.018 22.5171 71.7318 21.1581 71.7318 19.6203C71.7318 18.0826 72.018 16.7326 72.5897 15.5704C73.1798 14.4081 73.9752 13.5141 74.9765 12.8883C75.9772 12.2625 77.0948 11.9495 78.3279 11.9495ZM82.9397 19.6472C82.9397 18.5028 82.6181 17.5998 81.9744 16.9383C81.3489 16.2766 80.5801 15.9459 79.6685 15.9459C78.7569 15.9459 77.9792 16.2766 77.3361 16.9383C76.71 17.582 76.3973 18.476 76.3973 19.6203C76.3973 20.7647 76.71 21.6767 77.3361 22.3561C77.9792 23.0177 78.7569 23.3485 79.6685 23.3485C80.5801 23.3485 81.3489 23.0177 81.9744 22.3561C82.6181 21.6945 82.9397 20.7916 82.9397 19.6472Z" fill="#171A1F"/>
<path d="M96.843 27.3485C95.3774 27.3485 94.0545 27.0355 92.8743 26.4097C91.7126 25.7838 90.7921 24.8899 90.113 23.7276C89.4515 22.5653 89.1205 21.2064 89.1205 19.6508C89.1205 18.113 89.4604 16.763 90.1395 15.6008C90.8186 14.4206 91.7486 13.5177 92.928 12.8919C94.1082 12.2661 95.4311 11.9531 96.8967 11.9531C98.3624 11.9531 99.6853 12.2661 100.865 12.8919C102.045 13.5177 102.974 14.4206 103.653 15.6008C104.333 16.763 104.672 18.113 104.672 19.6508C104.672 21.1885 104.324 22.5475 103.627 23.7276C102.948 24.8899 102.009 25.7838 100.811 26.4097C99.6316 27.0355 98.3087 27.3485 96.843 27.3485ZM96.843 23.3789C97.7186 23.3789 98.4609 23.057 99.0687 22.4134C99.6941 21.7697 100.007 20.8488 100.007 19.6508C100.007 18.4528 99.7029 17.5319 99.0952 16.8882C98.5051 16.2445 97.7723 15.9226 96.8967 15.9226C96.0028 15.9226 95.2611 16.2445 94.671 16.8882C94.081 17.514 93.7859 18.4349 93.7859 19.6508C93.7859 20.8488 94.0721 21.7697 94.6445 22.4134C95.2339 23.057 95.9667 23.3789 96.843 23.3789Z" fill="#171A1F"/>
<path d="M25.6433 17.6239C29.3977 17.6239 32.4413 14.5795 32.4413 10.8239C32.4413 7.06839 29.3977 4.02393 25.6433 4.02393C21.8889 4.02393 18.8453 7.06839 18.8453 10.8239C18.8453 14.5795 21.8889 17.6239 25.6433 17.6239Z" fill="#15ABFF"/>
<path d="M25.6433 33.9339C29.3977 33.9339 32.4413 30.8895 32.4413 27.1339C32.4413 23.3784 29.3977 20.3339 25.6433 20.3339C21.8889 20.3339 18.8453 23.3784 18.8453 27.1339C18.8453 30.8895 21.8889 33.9339 25.6433 33.9339Z" fill="#FF56A5"/>
<path d="M3.13782 15.5839C3.13782 9.19951 8.31191 4.02393 14.6944 4.02393V22.3839C14.6944 28.7684 9.52032 33.9439 3.13782 33.9439V15.5839Z" fill="#6D31ED"/>
</g>
<defs>
<clipPath id="clip0_2_381">
<rect x="0.707886" y="0.811096" width="106" height="36" rx="4" fill="white"/>
</clipPath>
</defs>
</svg>
